<?xml version="1.0" encoding="utf-8"?>
<!-- Generator: Adobe Illustrator 26.3.1, SVG Export Plug-In . SVG Version: 6.00 Build 0)  -->
<svg version="1.1" id="Layer_1" xmlns="http://www.w3.org/2000/svg" xmlns:xlink="http://www.w3.org/1999/xlink" x="0px" y="0px"
	 viewBox="0 0 71.9 65.2" style="enable-background:new 0 0 71.9 65.2;" xml:space="preserve">
<style type="text/css">
	.st0{fill:#771313;}
	.st1{fill:#FFFFFF;}
</style>
<path class="st0" d="M39.1,0c0,0-13.5,0.3-16,1.9s-0.3,2.4-5.9,2.4s-7.7,0-9.6,2.1S5.8,8.4,5.8,15s0.3,8.3,1.8,9.5
	c1.5,1.2,2.1,1.8,0,4.1s-3.8,6.2-3.8,10.8s1.2,9,3,11.6c1.8,2.5,2.5,1.9,0.2,5.2s-6.8,9-6.8,9h28.4c12.3-0.2,27.7,0.1,32.2-3.1
	c6-4.4,8.7-8.2,10.4-15.6c1.6-7.4,1.5-18.4-8.6-22.2S45,23.1,45,23.1s1.3-7.8,0.9-16.4h-6.8L39.1,0L39.1,0z"/>
<path class="st1" d="M10,14.3c0,1.5,1.4,2.6,1.4,2.6v-1.3c0,0,0.3,1.4,1.4,2.2l0.2-1.4c0,0,0.6,1.1,2.3,1.4v-3.5
	C15.3,14.4,10,14.4,10,14.3z"/>
<path d="M33.2,10.3h8.7c0,0,0.2,2.1-0.3,3.2s-2.1,3.3-3.1,3.6h3.4c0,0,0,3.6,0,4.7s-5.9,9.1-10,9.9l-0.6-2.2l1.9-5.5l-3.6-7.3
	l0.3-3.4L33.2,10.3z"/>
<path d="M35.8,36.5c0.8-3.1,4.8-8.1,8.5-9.4s8.5-1.3,8.5-1.3v3.7c0,0,1.5-1.5,5.5-1.5s5.9,2,7,2.9c1.1,0.9,2.3,3.2,2.3,8.6
	s-1.1,7.3-3.1,9.3c-2,2.1-3.2-6.7-3.2-6.7l-12-6.6l-10.8,1.9L35.8,36.5z"/>
<path class="st1" d="M13.1,50.2c1,0.8,2.5,2.5,1.6,3.5c-0.9,1-3.7,3.1-5,5.3h12.5c0,0,0.3-1.6,2.6-3.3c2.3-1.7,5.6-3.1,7.1-3.7
	s0-5.6,0-5.6l-14.4-0.5L13.1,50.2z"/>
<path d="M22.6,20c-0.4,3.8-3.9,6.7-9,8.6c-5.1,1.9-7.8,9.9-4.6,17.1s7.2,8.1,10.1,8.7c2.9,0.6,13.7-2.1,15.2-3.7c1.6-1.6,0-7,0-7
	l-13,1.8L17.1,40l5.6-6.7c0,0,9.6-5.6,9.8-6S29.9,20,29.9,20H22.6z"/>
<path class="st1" d="M57.3,34.2c-10.4-5.2-21.6,2.3-24.8,4.2s-11.4,7.4-11.9,4c-0.4-3.4,2-5.9,7.9-8.7s6.9-6.8,6.6-12.2
	s-2.6-6.6-3.8-7.7c2.4-1.1,3.3-2.9,3.4-5.3c0,0-17,0-18,1s-3.1,1-3.1,0S9.4,7.9,9.8,12c0,2.3,0.1,2.9,1.3,2.9c1.2,0,4.9-0.3,6.2,1.4
	c1.3,1.8,2.1,3.2-0.1,3.2s-7.5,0-7.5,0s0.1,2.9,3.7,2.9s15.2,0,15.2,0s-0.2,4.8-4.6,7c-4.3,2.3-11.8,4-10.2,12.2s9.6,7.8,17,7.9
	c0,0,1.1,3.2-2.8,6s-4.6,5.2-4.6,5.2h11.8c0,0,3.7-3.4,4-4.6c0.3-1.1-1.8-8.4,0-9.4s4.7-3.6,9.2-3.4c0,0-1.1,2.6-3.9,4.4
	c-2.8,1.9-4.1,4.7-4.1,4.7l11.8,0.1c0,0,0-1.7,1.3-3c0,2.7-0.2,5.4-3.9,6.2c-3.7,0.8-6.2,0.7-9.8,5c0,0,14.6,2.1,20.1-3.2
	S67.8,39.4,57.3,34.2z M21.9,14c0,0.9-0.7,1.6-1.6,1.6c-0.9,0-1.6-0.7-1.6-1.6v-1.6c0-0.9,0.7-1.6,1.6-1.6c0.9,0,1.6,0.7,1.6,1.6V14
	z"/>
<path d="M17.6,55.4V59h-3.3c0,0,0.9-1.5,1.3-2.1S17.6,55.4,17.6,55.4z"/>
<path d="M22.1,55.4V59h-3.3c0,0,0.9-1.5,1.3-2.1S22.1,55.4,22.1,55.4z"/>
<path d="M13.1,55.4V59H9.7c0,0,0.9-1.5,1.3-2.1C11.5,56.3,13.1,55.4,13.1,55.4z"/>
<path d="M31,57.2v3.6h-3.3c0,0,0.9-1.5,1.3-2.1S31,57.2,31,57.2z"/>
<path d="M35.2,57.2v3.6h-3.3c0,0,0.9-1.5,1.3-2.1C33.7,58.1,35.2,57.2,35.2,57.2z"/>
<path d="M26.8,57.2v3.6h-3.3c0,0,0.9-1.5,1.3-2.1C25.2,58.1,26.8,57.2,26.8,57.2z"/>
<path d="M48.1,48.8v3.6h-3.3c0,0,0.9-1.5,1.3-2.1S48.1,48.8,48.1,48.8z"/>
<path d="M52.3,48.8v3.6H49c0,0,0.9-1.5,1.3-2.1S52.3,48.8,52.3,48.8z"/>
<path d="M43.9,48.8v3.6h-3.3c0,0,0.9-1.5,1.3-2.1C42.3,49.7,43.9,48.8,43.9,48.8z"/>
<path d="M23,11.8c0,0-0.4-4.1,1.8-5.8s4.3-1.9,7.1-1.9s3.8,0.2,2.8,1.5c-0.9,1.3-2,1.5-4.1,1.6S27.9,8.1,28,9.4S27.7,11.8,23,11.8z"
	/>
</svg>
