<?xml version="1.0" encoding="utf-8"?>
<!-- Generator: Adobe Illustrator 26.1.0, SVG Export Plug-In . SVG Version: 6.00 Build 0)  -->
<svg version="1.1" id="Layer_1" xmlns="http://www.w3.org/2000/svg" xmlns:xlink="http://www.w3.org/1999/xlink" x="0px" y="0px"
	 viewBox="0 0 50 50" style="enable-background:new 0 0 50 50;" xml:space="preserve">
<style type="text/css">
	.st0{fill:#FFFFFF;}
</style>
<g>
	<path class="st0" d="M10,30c-2.8,0-5.1-2.4-5.1-5.2c0-2.7,2.4-4.9,5.1-4.9c2.8,0,5,2.2,5,5.1C15.1,27.8,12.8,30.1,10,30z"/>
	<path class="st0" d="M34.9,24.9c0-2.8,2.3-5,5.1-5c2.8,0,5,2.3,5,5.1c0,2.8-2.3,5-5.1,5C37.1,30,34.9,27.8,34.9,24.9z"/>
	<path class="st0" d="M30,25c0,2.8-2.2,5.1-5,5c-2.8,0-5-2.2-5-5.1c0-2.8,2.2-5,5-5C27.9,20,30,22.2,30,25z"/>
</g>
</svg>
